# xmcd
#
# Track frame offsets: 
#        750
#        17662
#        36467
#        66365
#
# Disc length: 892 seconds
#
# Revision: 1
# Processed by: cddbd v1.5.2PL0 Copyright (c) Steve Scherf et al.
# Submitted via: ExactAudioCopyFreeDBPlugin 1.0
#
DISCID=31037204
DTITLE=Mystikal - Jump
DYEAR=2001
DGENRE=Rap
TTITLE0=Jump (Amber Remix) feat. Bekatas
TTITLE1=Jump (LP Version)
TTITLE2=Jump (Instrumental)
TTITLE3=Datentrack
EXTD=
EXTT0=
EXTT1=
EXTT2=
EXTT3=
PLAYORDER=
